<?xml version="1.0" encoding="UTF-8"?>
<svg version="1.1" xmlns="http://www.w3.org/2000/svg" width="200" height="200">
<path d="M0 0 C1.20398438 -0.020625 2.40796875 -0.04125 3.6484375 -0.0625 C23.61004925 -0.14835639 47.06596079 7.06165432 62.5 20.25 C62.5 20.91 62.5 21.57 62.5 22.25 C63.08910156 22.52328125 63.67820313 22.7965625 64.28515625 23.078125 C70.06430084 26.13587346 74.61643364 31.07191152 78.5 36.25 C78.5 36.91 78.5 37.57 78.5 38.25 C79.16 38.25 79.82 38.25 80.5 38.25 C94.53483233 55.44236945 101.11683498 78.1715709 100.9375 100 C100.92847656 101.31967773 100.91945312 102.63935547 100.91015625 103.99902344 C100.56070209 123.72862314 94.94155433 143.52252726 82.5 159.25 C81.73300781 160.24 80.96601563 161.23 80.17578125 162.25 C65.54976496 180.60722682 47.92356125 191.66639289 25.5 198.25 C24.85264893 198.44577637 24.20529785 198.64155273 23.53833008 198.84326172 C16.13208918 200.79837677 8.54322108 200.64862773 0.9375 200.625 C0.22213074 200.6237915 -0.49323853 200.62258301 -1.23028564 200.62133789 C-21.70343409 200.52726386 -42.13633054 195.19483138 -58.5 182.25 C-59.49 181.48300781 -60.48 180.71601563 -61.5 179.92578125 C-81.83046649 163.72759745 -96.02037962 141.34715282 -99.5 115.25 C-99.81962024 110.39269769 -99.88204465 105.55443129 -99.875 100.6875 C-99.87412384 100.0242572 -99.87324768 99.3610144 -99.87234497 98.67767334 C-99.77516561 76.35601138 -93.18072461 56.08230907 -79.5 38.25 C-78.84 38.25 -78.18 38.25 -77.5 38.25 C-77.22671875 37.66089844 -76.9534375 37.07179687 -76.671875 36.46484375 C-73.61412654 30.68569916 -68.67808848 26.13356636 -63.5 22.25 C-62.84 22.25 -62.18 22.25 -61.5 22.25 C-61.5 21.59 -61.5 20.93 -61.5 20.25 C-58.95885178 18.21596594 -56.09593355 16.61877604 -53.3125 14.9375 C-52.49185059 14.44056641 -51.67120117 13.94363281 -50.82568359 13.43164062 C-40.58746082 7.36424958 -30.13149023 3.78155964 -18.5 1.25 C-17.7471875 1.07726562 -16.994375 0.90453125 -16.21875 0.7265625 C-10.86835021 -0.21129493 -5.41788038 0.02262163 0 0 Z " fill="#FDFDFC" transform="translate(99.5,-0.25)"/>
<path d="M0 0 C2.78283164 2.21922017 5.45040429 4.51465411 8.08984375 6.90234375 C8.94449219 7.67449219 9.79914063 8.44664063 10.6796875 9.2421875 C24.98386168 22.84107112 33.88234798 39.72546603 38.08984375 58.90234375 C38.31542969 59.91683594 38.54101562 60.93132812 38.7734375 61.9765625 C39.97401232 67.91319799 40.08984375 72.60256499 40.08984375 78.90234375 C28.20984375 78.90234375 16.32984375 78.90234375 4.08984375 78.90234375 C3.09984375 70.98234375 3.09984375 70.98234375 2.08984375 62.90234375 C0.890002 59.21711553 -0.17077467 56.26629625 -1.91015625 52.90234375 C-2.33167969 52.08507812 -2.75320312 51.2678125 -3.1875 50.42578125 C-9.28681799 39.51121221 -17.11257001 32.07005589 -27.91015625 25.90234375 C-28.72097656 25.37769531 -29.53179687 24.85304687 -30.3671875 24.3125 C-33.17958756 22.7529356 -35.72102877 22.00970694 -38.84765625 21.27734375 C-39.84667969 21.03757813 -40.84570312 20.7978125 -41.875 20.55078125 C-60.64398359 16.54093405 -76.71863776 20.05384935 -92.91015625 29.90234375 C-103.1654507 37.02217434 -112.70772799 49.88920967 -115.4230957 62.234375 C-115.8634517 64.76562113 -116.24314208 67.29507255 -116.59765625 69.83984375 C-117.03078125 72.83046875 -117.46390625 75.82109375 -117.91015625 78.90234375 C-129.79015625 78.90234375 -141.67015625 78.90234375 -153.91015625 78.90234375 C-151.84077501 47.86162509 -141.38196212 23.87512416 -117.6328125 3.0625 C-83.66300897 -23.88915187 -35.36894479 -25.4941253 0 0 Z " fill="#2B339A" transform="translate(156.91015625,21.09765625)"/>
<path d="M0 0 C11.88 0 23.76 0 36 0 C36.66 5.28 37.32 10.56 38 16 C43.58807385 33.40285855 52.92995106 46.74284369 69.33984375 55.26953125 C84.99733886 62.90581951 101.52401429 62.83893563 118 58 C118.77601562 57.78730469 119.55203125 57.57460937 120.3515625 57.35546875 C121.90704506 56.9247674 123.45505078 56.46707767 125 56 C125.51949219 56.59167969 126.03898437 57.18335938 126.57421875 57.79296875 C127.27160156 58.58316406 127.96898437 59.37335938 128.6875 60.1875 C129.37199219 60.96480469 130.05648437 61.74210937 130.76171875 62.54296875 C133.93452672 66.02585918 137.27872035 69.30715035 140.67578125 72.5703125 C141.54589844 73.41335937 142.41601562 74.25640625 143.3125 75.125 C144.19550781 75.97320312 145.07851562 76.82140625 145.98828125 77.6953125 C148 80 148 80 148 83 C137.83326834 88.07105744 128.1086325 92.40388662 117 95 C116.12730469 95.22429687 115.25460938 95.44859375 114.35546875 95.6796875 C89.85753289 101.17384823 63.86674161 94.15846086 43 81 C39.10261362 78.22474029 35.52968317 75.2265202 32 72 C31.15953125 71.25234375 30.3190625 70.5046875 29.453125 69.734375 C14.10063894 55.3354595 4.1746925 35.52044609 1.3125 14.75 C1.18294922 13.87859375 1.05339844 13.0071875 0.91992188 12.109375 C0.3238523 7.97157988 0 4.21294086 0 0 Z " fill="#EFCF30" transform="translate(3,100)"/>
<path d="M0 0 C10.41345077 6.58989947 17.44200441 15.0933952 20.43359375 27.2734375 C20.47484375 28.4078125 20.51609375 29.5421875 20.55859375 30.7109375 C20.63078125 31.50628906 20.70296875 32.30164063 20.77734375 33.12109375 C21.36460681 43.32478936 17.71829025 53.14141838 11.20703125 61.0078125 C8.25533455 64.05743278 5.16285063 66.47402982 1.55859375 68.7109375 C0.39070313 69.44376953 0.39070313 69.44376953 -0.80078125 70.19140625 C-9.84490722 75.08345621 -20.07197315 75.33550077 -29.91796875 72.82421875 C-40.24082867 68.89107845 -48.63852508 61.23016236 -54.19140625 51.7109375 C-58.40082957 41.60832153 -59.10650396 31.47058461 -55.50390625 20.9609375 C-51.09362023 10.67027011 -42.79315881 2.1421244 -32.37890625 -2.0390625 C-21.55374195 -5.99323751 -10.27779874 -5.42667773 0 0 Z " fill="#EFCF30" transform="translate(118.44140625,65.2890625)"/>
<path d="M0 0 C9.29829216 5.88419842 15.99034429 13.12592902 19.55859375 23.7109375 C20.05359375 29.1559375 20.05359375 29.1559375 20.55859375 34.7109375 C-5.18140625 34.7109375 -30.92140625 34.7109375 -57.44140625 34.7109375 C-57.44140625 23.18372523 -53.65095548 15.10928731 -45.72265625 6.83203125 C-32.97032702 -5.0250146 -15.72136049 -8.30087834 0 0 Z " fill="#2D3499" transform="translate(118.44140625,65.2890625)"/>
<path d="M0 0 C11.88 0 23.76 0 36 0 C36 10.14718101 36 10.14718101 35.30078125 13.578125 C35.14633545 14.3397998 34.99188965 15.10147461 34.83276367 15.88623047 C34.66107666 16.66627441 34.48938965 17.44631836 34.3125 18.25 C34.13243408 19.07773926 33.95236816 19.90547852 33.7668457 20.75830078 C30.2163319 36.38298817 23.40353866 50.76240286 13 63 C7.91132318 58.88575066 3.59710165 54.45376092 -0.70703125 49.52734375 C-3.51079264 46.43699687 -6.53796525 43.64750578 -9.6640625 40.88671875 C-11 39 -11 39 -10.85546875 36.5234375 C-10.02273117 34.06705177 -9.05457569 32.13413246 -7.6875 29.9375 C-2.11159894 20.1594706 -0.8801423 11.44184991 0 0 Z " fill="#EFCF31" transform="translate(161,100)"/>
</svg>
